<svg width="40" height="40" viewBox="0 0 40 40" fill="none" xmlns="http://www.w3.org/2000/svg">
<rect width="40" height="40" rx="5" fill="white"/>
<g clip-path="url(#clip0_2461_7952)">
<path d="M28.16 25.5863C27.8575 26.2851 27.4995 26.9283 27.0847 27.5196C26.5193 28.3257 26.0563 28.8837 25.6996 29.1936C25.1465 29.7022 24.5539 29.9627 23.9194 29.9775C23.4638 29.9775 22.9145 29.8479 22.275 29.585C21.6334 29.3232 21.0438 29.1936 20.5047 29.1936C19.9393 29.1936 19.3329 29.3232 18.6842 29.585C18.0346 29.8479 17.5113 29.985 17.1112 29.9985C16.5027 30.0245 15.8962 29.7566 15.2908 29.1936C14.9044 28.8566 14.421 28.2788 13.842 27.4603C13.2208 26.5863 12.7101 25.5727 12.31 24.4172C11.8815 23.1691 11.6667 21.9605 11.6667 20.7904C11.6667 19.4501 11.9563 18.2941 12.5364 17.3253C12.9923 16.5472 13.5988 15.9334 14.358 15.4828C15.1171 15.0322 15.9373 14.8026 16.8206 14.7879C17.3039 14.7879 17.9377 14.9374 18.7254 15.2312C19.5108 15.526 20.0151 15.6755 20.2362 15.6755C20.4015 15.6755 20.9617 15.5007 21.9114 15.1522C22.8095 14.829 23.5675 14.6952 24.1885 14.7479C25.8712 14.8837 27.1353 15.547 27.976 16.742C26.4712 17.6538 25.7267 18.931 25.7415 20.5693C25.7551 21.8454 26.2181 22.9074 27.1279 23.7506C27.5403 24.1419 28.0007 24.4444 28.5131 24.6592C28.402 24.9814 28.2847 25.29 28.16 25.5863ZM24.3009 10.4004C24.3009 11.4006 23.9354 12.3345 23.2071 13.1989C22.3281 14.2265 21.2649 14.8203 20.112 14.7266C20.0973 14.6067 20.0888 14.4804 20.0888 14.3476C20.0888 13.3874 20.5068 12.3598 21.2491 11.5196C21.6197 11.0942 22.091 10.7404 22.6626 10.4583C23.233 10.1803 23.7725 10.0266 24.2799 10.0002C24.2947 10.134 24.3009 10.2677 24.3009 10.4003V10.4004Z" fill="black"/>
</g>
<rect x="0.5" y="0.5" width="39" height="39" rx="4.5" stroke="#1679D5" stroke-opacity="0.1"/>
<defs>
<clipPath id="clip0_2461_7952">
<rect width="20" height="20" fill="white" transform="translate(10 10)"/>
</clipPath>
</defs>
</svg>
